<svg id="visual" viewBox="0 0 900 600" width="900" height="600" xmlns="http://www.w3.org/2000/svg" xmlns:xlink="http://www.w3.org/1999/xlink" version="1.1"><g stroke-width="1" stroke-linejoin="bevel"><path d="M461 319L424 233L399 271Z" fill="#d15330" stroke="#d15330"></path><path d="M461 319L521 165L424 233Z" fill="#f5cd42" stroke="#f5cd42"></path><path d="M322 189L316 319L399 271Z" fill="#efa431" stroke="#efa431"></path><path d="M399 271L418 413L461 319Z" fill="#f4bf3b" stroke="#f4bf3b"></path><path d="M316 319L418 413L399 271Z" fill="#de6e2d" stroke="#de6e2d"></path><path d="M384 91L322 189L424 233Z" fill="#f4bf3b" stroke="#f4bf3b"></path><path d="M424 233L322 189L399 271Z" fill="#d15330" stroke="#d15330"></path><path d="M461 319L579 199L521 165Z" fill="#f2b235" stroke="#f2b235"></path><path d="M633 313L579 199L461 319Z" fill="#de6e2d" stroke="#de6e2d"></path><path d="M418 413L501 418L461 319Z" fill="#efa431" stroke="#efa431"></path><path d="M215 287L300 375L316 319Z" fill="#e8892d" stroke="#e8892d"></path><path d="M316 319L300 375L418 413Z" fill="#f5cd42" stroke="#f5cd42"></path><path d="M627 119L485 97L521 165Z" fill="#f5cd42" stroke="#f5cd42"></path><path d="M521 165L485 97L424 233Z" fill="#f2b235" stroke="#f2b235"></path><path d="M586 415L633 313L461 319Z" fill="#d15330" stroke="#d15330"></path><path d="M485 97L384 91L424 233Z" fill="#e37c2d" stroke="#e37c2d"></path><path d="M501 418L586 415L461 319Z" fill="#efa431" stroke="#efa431"></path><path d="M300 375L374 481L418 413Z" fill="#d8602e" stroke="#d8602e"></path><path d="M418 413L374 481L501 418Z" fill="#de6e2d" stroke="#de6e2d"></path><path d="M501 418L569 519L586 415Z" fill="#f4bf3b" stroke="#f4bf3b"></path><path d="M322 189L215 287L316 319Z" fill="#f4bf3b" stroke="#f4bf3b"></path><path d="M300 375L295 511L374 481Z" fill="#d15330" stroke="#d15330"></path><path d="M201 203L215 287L322 189Z" fill="#f5cd42" stroke="#f5cd42"></path><path d="M371 0L334 70L384 91Z" fill="#e37c2d" stroke="#e37c2d"></path><path d="M384 91L334 70L322 189Z" fill="#ec972e" stroke="#ec972e"></path><path d="M691 412L682 304L633 313Z" fill="#f4bf3b" stroke="#f4bf3b"></path><path d="M633 313L682 304L579 199Z" fill="#ca4531" stroke="#ca4531"></path><path d="M579 199L627 119L521 165Z" fill="#de6e2d" stroke="#de6e2d"></path><path d="M718 217L627 119L579 199Z" fill="#ec972e" stroke="#ec972e"></path><path d="M485 97L371 0L384 91Z" fill="#d8602e" stroke="#d8602e"></path><path d="M198 101L201 203L322 189Z" fill="#d15330" stroke="#d15330"></path><path d="M374 481L528 527L501 418Z" fill="#ca4531" stroke="#ca4531"></path><path d="M586 415L691 412L633 313Z" fill="#d15330" stroke="#d15330"></path><path d="M91 285L192 361L215 287Z" fill="#efa431" stroke="#efa431"></path><path d="M215 287L192 361L300 375Z" fill="#e37c2d" stroke="#e37c2d"></path><path d="M528 527L569 519L501 418Z" fill="#f5cd42" stroke="#f5cd42"></path><path d="M682 304L718 217L579 199Z" fill="#de6e2d" stroke="#de6e2d"></path><path d="M718 217L668 105L627 119Z" fill="#de6e2d" stroke="#de6e2d"></path><path d="M602 0L509 0L485 97Z" fill="#ec972e" stroke="#ec972e"></path><path d="M209 501L295 511L300 375Z" fill="#de6e2d" stroke="#de6e2d"></path><path d="M374 481L379 600L528 527Z" fill="#efa431" stroke="#efa431"></path><path d="M715 500L691 412L586 415Z" fill="#f5cd42" stroke="#f5cd42"></path><path d="M810 308L782 182L718 217Z" fill="#e8892d" stroke="#e8892d"></path><path d="M602 0L485 97L627 119Z" fill="#e37c2d" stroke="#e37c2d"></path><path d="M509 0L371 0L485 97Z" fill="#e8892d" stroke="#e8892d"></path><path d="M334 70L198 101L322 189Z" fill="#f2b235" stroke="#f2b235"></path><path d="M215 0L198 101L334 70Z" fill="#d8602e" stroke="#d8602e"></path><path d="M201 203L138 212L215 287Z" fill="#de6e2d" stroke="#de6e2d"></path><path d="M371 0L313 0L334 70Z" fill="#efa431" stroke="#efa431"></path><path d="M118 138L138 212L201 203Z" fill="#d15330" stroke="#d15330"></path><path d="M668 105L602 0L627 119Z" fill="#de6e2d" stroke="#de6e2d"></path><path d="M192 361L209 501L300 375Z" fill="#f5cd42" stroke="#f5cd42"></path><path d="M107 493L209 501L192 361Z" fill="#f5cd42" stroke="#f5cd42"></path><path d="M282 600L379 600L295 511Z" fill="#ca4531" stroke="#ca4531"></path><path d="M295 511L379 600L374 481Z" fill="#d15330" stroke="#d15330"></path><path d="M528 527L562 600L569 519Z" fill="#d15330" stroke="#d15330"></path><path d="M379 600L521 600L528 527Z" fill="#de6e2d" stroke="#de6e2d"></path><path d="M569 519L715 500L586 415Z" fill="#efa431" stroke="#efa431"></path><path d="M521 600L562 600L528 527Z" fill="#e8892d" stroke="#e8892d"></path><path d="M810 308L718 217L682 304Z" fill="#f4bf3b" stroke="#f4bf3b"></path><path d="M718 217L782 182L668 105Z" fill="#f2b235" stroke="#f2b235"></path><path d="M668 105L680 0L602 0Z" fill="#de6e2d" stroke="#de6e2d"></path><path d="M675 600L715 500L569 519Z" fill="#efa431" stroke="#efa431"></path><path d="M691 412L810 308L682 304Z" fill="#ec972e" stroke="#ec972e"></path><path d="M0 273L91 285L0 186Z" fill="#e8892d" stroke="#e8892d"></path><path d="M138 212L91 285L215 287Z" fill="#de6e2d" stroke="#de6e2d"></path><path d="M113 0L118 138L198 101Z" fill="#f5cd42" stroke="#f5cd42"></path><path d="M198 101L118 138L201 203Z" fill="#e37c2d" stroke="#e37c2d"></path><path d="M313 0L215 0L334 70Z" fill="#e8892d" stroke="#e8892d"></path><path d="M785 84L680 0L668 105Z" fill="#d15330" stroke="#d15330"></path><path d="M209 501L282 600L295 511Z" fill="#efa431" stroke="#efa431"></path><path d="M839 371L810 308L691 412Z" fill="#f4bf3b" stroke="#f4bf3b"></path><path d="M91 285L91 381L192 361Z" fill="#e37c2d" stroke="#e37c2d"></path><path d="M209 501L200 600L282 600Z" fill="#e37c2d" stroke="#e37c2d"></path><path d="M782 182L785 84L668 105Z" fill="#d15330" stroke="#d15330"></path><path d="M900 93L785 84L782 182Z" fill="#f4bf3b" stroke="#f4bf3b"></path><path d="M562 600L675 600L569 519Z" fill="#e8892d" stroke="#e8892d"></path><path d="M825 511L839 371L691 412Z" fill="#ec972e" stroke="#ec972e"></path><path d="M91 381L107 493L192 361Z" fill="#e37c2d" stroke="#e37c2d"></path><path d="M825 511L691 412L715 500Z" fill="#d15330" stroke="#d15330"></path><path d="M810 308L900 182L782 182Z" fill="#f2b235" stroke="#f2b235"></path><path d="M107 493L200 600L209 501Z" fill="#efa431" stroke="#efa431"></path><path d="M900 0L771 0L785 84Z" fill="#f4bf3b" stroke="#f4bf3b"></path><path d="M785 84L771 0L680 0Z" fill="#f4bf3b" stroke="#f4bf3b"></path><path d="M215 0L113 0L198 101Z" fill="#f5cd42" stroke="#f5cd42"></path><path d="M0 186L91 285L138 212Z" fill="#ca4531" stroke="#ca4531"></path><path d="M0 186L138 212L118 138Z" fill="#de6e2d" stroke="#de6e2d"></path><path d="M91 285L0 273L91 381Z" fill="#de6e2d" stroke="#de6e2d"></path><path d="M91 381L0 464L107 493Z" fill="#e37c2d" stroke="#e37c2d"></path><path d="M827 600L825 511L715 500Z" fill="#e37c2d" stroke="#e37c2d"></path><path d="M0 133L0 186L118 138Z" fill="#de6e2d" stroke="#de6e2d"></path><path d="M900 365L900 319L839 371Z" fill="#d8602e" stroke="#d8602e"></path><path d="M839 371L900 319L810 308Z" fill="#efa431" stroke="#efa431"></path><path d="M900 498L900 365L839 371Z" fill="#e8892d" stroke="#e8892d"></path><path d="M900 319L900 182L810 308Z" fill="#ca4531" stroke="#ca4531"></path><path d="M0 273L0 413L91 381Z" fill="#efa431" stroke="#efa431"></path><path d="M107 493L92 600L200 600Z" fill="#d8602e" stroke="#d8602e"></path><path d="M113 0L0 133L118 138Z" fill="#ca4531" stroke="#ca4531"></path><path d="M0 600L92 600L107 493Z" fill="#f5cd42" stroke="#f5cd42"></path><path d="M0 413L0 464L91 381Z" fill="#e8892d" stroke="#e8892d"></path><path d="M900 182L900 93L782 182Z" fill="#de6e2d" stroke="#de6e2d"></path><path d="M675 600L827 600L715 500Z" fill="#efa431" stroke="#efa431"></path><path d="M825 511L900 498L839 371Z" fill="#ca4531" stroke="#ca4531"></path><path d="M900 600L900 498L825 511Z" fill="#e8892d" stroke="#e8892d"></path><path d="M113 0L0 0L0 133Z" fill="#f5cd42" stroke="#f5cd42"></path><path d="M900 93L900 0L785 84Z" fill="#ca4531" stroke="#ca4531"></path><path d="M0 464L0 600L107 493Z" fill="#ec972e" stroke="#ec972e"></path><path d="M827 600L900 600L825 511Z" fill="#f5cd42" stroke="#f5cd42"></path></g></svg>